<svg width="30" height="30" viewBox="0 0 30 30" fill="none" xmlns="http://www.w3.org/2000/svg">
<g id="iwwa:star">
<path id="Vector" d="M29.0609 11.8072C29.0375 11.735 28.9926 11.6716 28.9324 11.6254C28.8721 11.5792 28.7992 11.5524 28.7234 11.5485L18.8639 11.0557L15.3502 1.83225C15.2407 1.5405 14.7599 1.5405 14.6497 1.83225L11.1352 11.0557L1.27641 11.5485C1.2005 11.5523 1.12756 11.5792 1.06724 11.6254C1.00693 11.6717 0.962087 11.7351 0.938663 11.8074C0.91524 11.8797 0.914339 11.9575 0.936081 12.0303C0.957823 12.1031 1.00118 12.1676 1.06041 12.2152L8.74566 18.408L6.16866 27.936C6.12741 28.086 6.18441 28.2457 6.31041 28.3372C6.37198 28.3816 6.44546 28.4064 6.5213 28.4084C6.59714 28.4104 6.67183 28.3895 6.73566 28.3485L14.9999 22.9515L23.2642 28.3485C23.328 28.3898 23.4029 28.4108 23.4789 28.4088C23.5549 28.4068 23.6286 28.3818 23.6902 28.3372C23.7517 28.2927 23.7982 28.2303 23.8233 28.1586C23.8485 28.087 23.8513 28.0093 23.8312 27.936L21.2534 18.408L28.9387 12.2152C28.998 12.1677 29.0415 12.1032 29.0633 12.0303C29.0852 11.9574 29.0843 11.8796 29.0609 11.8072Z" fill="black"/>
</g>
</svg>
